<?xml version="1.0" encoding="UTF-8"?>
<svg width="800" height="600" viewBox="0 0 800 600" fill="none" xmlns="http://www.w3.org/2000/svg">
  <!-- Background -->
  <rect width="800" height="600" fill="#F3F4F6"/>
  
  <!-- Calendar/Board -->
  <rect x="100" y="100" width="600" height="400" rx="8" fill="white" stroke="#E5E7EB" stroke-width="2"/>
  
  <!-- Cards -->
  <g transform="translate(150,150)">
    <!-- Card 1 -->
    <rect width="150" height="100" rx="4" fill="#EEF2FF" stroke="#C7D2FE" stroke-width="2"/>
    <rect x="10" y="10" width="100" height="10" rx="2" fill="#6366F1"/>
    <rect x="10" y="30" width="130" height="8" rx="2" fill="#A5B4FC"/>
    <rect x="10" y="45" width="110" height="8" rx="2" fill="#A5B4FC"/>
  </g>
  
  <g transform="translate(350,150)">
    <!-- Card 2 -->
    <rect width="150" height="100" rx="4" fill="#F0FDF4" stroke="#BBF7D0" stroke-width="2"/>
    <rect x="10" y="10" width="80" height="10" rx="2" fill="#22C55E"/>
    <rect x="10" y="30" width="130" height="8" rx="2" fill="#86EFAC"/>
    <rect x="10" y="45" width="110" height="8" rx="2" fill="#86EFAC"/>
  </g>
  
  <g transform="translate(150,300)">
    <!-- Card 3 -->
    <rect width="150" height="100" rx="4" fill="#FDF2F8" stroke="#FBCFE8" stroke-width="2"/>
    <rect x="10" y="10" width="90" height="10" rx="2" fill="#EC4899"/>
    <rect x="10" y="30" width="130" height="8" rx="2" fill="#F9A8D4"/>
    <rect x="10" y="45" width="110" height="8" rx="2" fill="#F9A8D4"/>
  </g>
  
  <!-- Connecting Lines -->
  <path d="M 310 200 L 340 200" stroke="#6366F1" stroke-width="2" stroke-dasharray="4"/>
  <path d="M 225 260 L 225 290" stroke="#EC4899" stroke-width="2" stroke-dasharray="4"/>
  
  <!-- Avatars -->
  <circle cx="650" cy="150" r="20" fill="#6366F1"/>
  <circle cx="700" cy="150" r="20" fill="#22C55E"/>
  <circle cx="750" cy="150" r="20" fill="#EC4899"/>
</svg> 